<svg xmlns="http://www.w3.org/2000/svg" xmlns:xlink="http://www.w3.org/1999/xlink" width="1024" height="1024"><style><![CDATA[.B{stroke:#311c25}.C{stroke-linecap:round}.D{stroke-linejoin:round}.E{stroke-width:46.11}]]></style><path d="M101.015 306.076L66.67 208.091l51.518-65.66 81.822-17.173 68.69 63.64 624.274 304.056-5.051 283.853-135.36 119.198-479.822 12.122-199-103.036L39.396 529.32l34.345-157.584z" fill="#c06844"/><path d="M104.286 290.714l-31.429-60 15-57.143c2.143-5 45-46.429 45-46.429l76.429 1.429L275 185l12.857-46.429L405.714 105l110.714-14.286 91.429 27.143L690 160l58.571-47.857 65.714 5.714 52.143 46.429 2.143 66.429-14.286 60.714 12.143 90 12.143 27.143-.179 9.107.804 21.786 19.334 106.523-16.668 219.708-78.792 94.954-207.081 45.457-153.543-19.193-20.483-27.985c-200.069-97.413-334.343-353.385-218.301-585.75 2.377-4.76 8.394-9.511 10.98-14.25 16.05-40.517-7.411-54.547-15.207-57.145-2.532-.844-4.775-1.453-7.65-1.873-33.186-3.983-51.569 8.156-51.429 41.875 2.608 7.76 3.852 17.016 12.247 20.274 3.437 1.64 3.252 18.577-22.605 21.869z" fill="#eda261"/><circle cx="473.571" cy="409.286" r="68.095" fill="#321d26"/><circle cx="483.036" cy="394.464" r="25.179" fill="#fff"/><circle cx="756.604" cy="408.102" r="68.095" fill="#321d26"/><circle cx="765.696" cy="393.454" r="25.179" fill="#fff"/><g fill="#fffdf6"><path d="M633.618 133.845l62.629 51.265c-26.873 32.187-50.408 19.393-67.933 16.668-36.085-17.282-13.237-57.907 5.303-67.933z"/><ellipse cx="709.253" cy="238.901" rx="13.006" ry="12.374"/></g><g fill="#c16945"><path d="M332.75 657.25H884V715H332.75z"/><path d="M850.649 713.117l9.458 1.282c9.118 14.568 5.162 14.288 5.215 18.562l9.546-7.822 1.768-14.672zM309.89 624.729c-26.051 15.117-12.269 71.315 5.303 81.494 7.303 4.23 13.228 8.832 17.671 8.827 23.393-.028 9.956-31.303 20.708-40.05z"/></g><path d="M323.501 599.627h207.889v35.709H323.501z" fill="#b16f5e"/><path d="M337.643 634.982h209.919v32.113H337.643z" fill="#9e4f42"/><path d="M514.951 595.561l-.884 10.783c7.192 20.634 13.257 41.944 27.224 58.513l65.761-2.298c.177-.884-5.127-29.168-9.016-32.88s-83.085-34.118-83.085-34.118z" fill="#853d37"/><path d="M873.827 600.303h111.139v34.709H873.827z" fill="#b16f5e"/><path d="M839.219 634.659h143.919v32.113H839.219z" fill="#9e4f42"/><path d="M605.066 691.373a85.125 81.375 0 0 0-.316 7.002 85.125 81.375 0 0 0 85.125 81.375A85.125 81.375 0 0 0 775 698.375a85.125 81.375 0 0 0-.316-7.002z" fill="#c26845"/><path d="M660.615 704.455l1.061 10.43c12.444 47.617 46.247 46.028 66.468 45.078l17.501-25.279-38.714-37.653c-.707 0-46.315 7.425-46.315 7.425z" fill="#cdd2ea"/><ellipse ry="51.088" rx="49.674" cy="709.051" cx="728.143" fill="#fff"/><path d="M660.615 625.743h58.867v78.712h-58.867z" fill="#cdd2ea"/><path d="M678.697 625.667h98.956v78.978h-98.956z" fill="#fff"/><path d="M682.781 618.308H798.57v55.331H682.781z" fill="#feffff"/><path d="M731.571 623.788l-8.22 5.922c19.04 19.189 40.003 29.097 54.359 31.555l20.86-1.768z" fill="#c7cbd8"/><path d="M796.215 654.359v19.914l171.867-.283c35.966-31.899 33.038-58.66-2.367-81.133l-66.199-1.184-363.127-.139-179.246 2.037c-30.67 14.436-50.083 46.35-3.57 81.428l287.623-.473v-20.168" fill="none" stroke-width="33.26" class="B C D"/><path d="M548.495 482.6c-17.881 40.447-17.254 68.247-6.296 96.975l40.911 41.669z" fill="#c4cfe6"/><path d="M600.289 443.882H823.86c49.549 9.554 73.459 57.912 71.618 91.245-6.963 126.099-117.189 103.201-160.904 45.898-31.341 41.501-187.21 97.732-188.716-80.558-.438-51.832 58.417-54.591 54.43-56.585z" fill="#feffff"/><use xlink:href="#B" fill="none" class="B C D E"/><ellipse cx="733.375" cy="481" rx="71.625" ry="67" fill="#321d24"/><ellipse cx="734.554" cy="476.161" rx="30.357" ry="19.821" fill="#8e4235"/><path d="M738.871 456.585a25.609 16.885 17.63 0 0-18.273 10.184 25.609 16.885 17.63 0 0 19.418 23.805 25.609 16.885 17.63 0 0 12.18 1.719 30.357 19.821 0 0 0 12.703-16.127 30.357 19.821 0 0 0-25.627-19.578 25.609 16.885 17.63 0 0-.4-.002z" fill="#aa725f"/><path d="M384.75 536l53.75 50.5m-54.125 143.25l55.5-50.5" fill="none" stroke-width="37" class="B C D"/><g fill="#311c25"><path d="M635.341 661.587h25.281v29.577h-25.281zm142.37-.046v29.352h24.445v-33.627h-7.814l5.053 2.693-20.859 1.768c-.261-.045-.559-.136-.824-.186z"/><path d="M777.711 661.541l.824.186 20.859-1.768-5.053-2.693h-16.631z"/></g><g fill="none" class="B C D"><use xlink:href="#B" class="E"/><path d="M880 395C779.504 105.229 485.829 30.508 267.502 156.381m628.213 307.905c37.81 76.91 34.585 162.53-11.429 300.714-51.03 81.382-79.483 108.72-147.143 120.714-181.029 4.262-165.817-2.041-515 4.286-50.345-10.17-140.175-58.823-167.857-157.857C43.006 626.713 27.796 561.596 60 400c11.803-28.701 30.48-74.681 45.75-99.352C-17.174 129.424 202.137 35.656 290 199.286m407.5-52.143c131.52-99.834 234.454 43.281 147.143 150" stroke-width="56.693"/></g><defs ><path id="B" d="M893.571 464.286c28.83 22.7 26.021 131.295-33.633 160.629-28.084 13.81-68.6 36.827-125.061-27.353-29.789 33.083-59.124 47.802-91.396 47.365-29.605-.401-61.816-13.199-94.194-49.406"/></defs></svg>
